name Walk7.mot
datacolumns 19
datarows 22
range 1.83000000 1.93500000
endheader

                time	   L_ground_force_vx	   L_ground_force_vy	   L_ground_force_vz	   L_ground_force_px	   L_ground_force_py	   L_ground_force_pz	   R_ground_force_vx	   R_ground_force_vy	   R_ground_force_vz	   R_ground_force_px	   R_ground_force_py	   R_ground_force_pz	   L_ground_torque_x	   L_ground_torque_y	   L_ground_torque_z	   R_ground_torque_x	   R_ground_torque_y	   R_ground_torque_z	
          1.83000000	          0.00000000	         -0.00000000	          0.00000000	         -0.00000000	          0.00000000	         -0.00000000	         19.36332361	        680.24336477	        -20.73206164	         -0.12017308	          0.00000000	          0.30542970	          0.00000000	          0.00000000	          0.00000000	          0.00000000	          2.37422344	          0.00000000	
          1.83500000	         -0.00000000	          0.00000000	          0.00000000	          0.00000000	          0.00000000	          0.00000000	         21.63887215	        691.63232666	        -21.45882144	         -0.11798596	          0.00000000	          0.30538649	          0.00000000	         -0.00000000	          0.00000000	          0.00000000	          2.24105564	          0.00000000	
          1.84000000	         -0.00000000	          0.00000000	         -0.00000000	          0.00000000	          0.00000000	          0.00000000	         23.93322879	        702.73899905	        -22.38996865	         -0.11593324	          0.00000000	          0.30518246	          0.00000000	         -0.00000000	          0.00000000	          0.00000000	          2.05691623	          0.00000000	
          1.84500000	         -0.00000000	          0.00000000	         -0.00000000	         -0.00000000	          0.00000000	         -0.00000000	         26.31914966	        713.11669689	        -23.31244258	         -0.11390258	          0.00000000	          0.30523619	          0.00000000	         -0.00000000	          0.00000000	          0.00000000	          1.85650545	          0.00000000	
          1.85000000	          0.00000000	         -0.00000000	         -0.00000000	         -0.00000000	          0.00000000	         -0.00000000	         28.94742053	        723.11603624	        -23.93146699	         -0.11195342	          0.00000000	          0.30529892	          0.00000000	          0.00000000	          0.00000000	          0.00000000	          1.69409276	          0.00000000	
          1.85500000	          0.00000000	         -0.00000004	          0.00000000	         -0.00000000	          0.00000000	         -0.00000000	         31.85198000	        733.73413398	        -24.23069865	         -0.11029701	          0.00000000	          0.30502505	          0.00000000	          0.00000000	          0.00000000	          0.00000000	          1.67038198	          0.00000000	
          1.86000000	         -0.00000000	         -0.00000008	          0.00000001	          0.00000000	          0.00000000	          0.00000000	         35.10448295	        744.89101285	        -24.69887817	         -0.10879134	          0.00000000	          0.30479727	          0.00000000	          0.00000000	          0.00000000	          0.00000000	          1.67029199	          0.00000000	
          1.86500000	         -0.00000005	          0.00000019	         -0.00000000	          0.00000000	          0.00000000	          0.00000000	         38.80578207	        755.69738429	        -26.04718834	         -0.10729946	          0.00000000	          0.30485750	          0.00000000	         -0.00000000	          0.00000000	          0.00000000	          1.44210140	          0.00000000	
          1.87000000	         -0.00000010	          0.00000121	         -0.00000006	          0.00000000	          0.00000000	          0.00000000	         43.39958770	        765.84186007	        -27.60757674	         -0.10589160	          0.00000000	          0.30486443	          0.00000000	         -0.00000000	          0.00000000	          0.00000000	          1.13243740	          0.00000000	
          1.87500000	          0.00000017	          0.00000137	         -0.00000014	         -0.00000001	          0.00000000	         -0.00000001	         48.76642506	        775.38130445	        -27.92951958	         -0.10479391	          0.00000000	          0.30474463	          0.00000000	         -0.00000000	          0.00000000	          0.00000000	          0.96028040	          0.00000000	
          1.88000000	          0.00000135	         -0.00000761	          0.00000017	         -0.00000004	          0.00000000	         -0.00000002	         53.83200188	        784.77543012	        -27.12031272	         -0.10408173	          0.00000000	          0.30450404	          0.00000000	          0.00000001	          0.00000000	          0.00000000	          0.96540714	          0.00000000	
          1.88500000	          0.00000199	         -0.00003236	          0.00000174	         -0.00000003	          0.00000000	         -0.00000001	         58.61349003	        793.92482983	        -25.95275979	         -0.10352910	          0.00000000	          0.30410779	          0.00000000	          0.00000004	          0.00000000	          0.00000000	          1.08789612	          0.00000000	
          1.89000000	         -0.00000731	         -0.00001380	          0.00000295	          0.00000032	          0.00000000	          0.00000018	         64.03411118	        801.80692619	        -24.63361566	         -0.10299639	          0.00000000	          0.30368431	          0.00000000	         -0.00000001	          0.00000000	          0.00000000	          1.18615648	          0.00000000	
          1.89500000	         -0.00003728	          0.00026238	         -0.00000838	          0.00000110	          0.00000000	          0.00000060	         70.20864976	        808.18272628	        -23.06664518	         -0.10251170	          0.00000000	          0.30333416	          0.00000000	         -0.00000036	          0.00000000	          0.00000000	          1.30918800	          0.00000000	
          1.90000000	         -0.00002942	          0.00080801	         -0.00004894	         -0.00000011	          0.00000000	         -0.00000011	         76.69555670	        812.92109251	        -21.39891767	         -0.10204832	          0.00000000	          0.30317738	          0.00000000	         -0.00000088	          0.00000000	          0.00000000	          1.43055200	          0.00000000	
          1.90500000	          0.00026722	         -0.00032118	         -0.00004982	         -0.00001039	          0.00000000	         -0.00000586	         83.02777068	        816.14786462	        -19.70750798	         -0.10172143	          0.00000000	          0.30302598	          0.00000000	          0.00000103	          0.00000000	          0.00000000	          1.51229616	          0.00000000	
          1.91000000	          0.00096452	         -0.00827965	          0.00032174	         -0.00002599	          0.00000000	         -0.00001419	         88.89318270	        818.23282280	        -17.91576727	         -0.10146722	          0.00000000	          0.30269715	          0.00000000	          0.00001079	          0.00000000	          0.00000000	          1.62847143	          0.00000000	
          1.91500000	          0.00004033	         -0.01852577	          0.00129406	          0.00002831	          0.00000000	          0.00001718	         94.15165045	        818.86858482	        -16.11702737	         -0.10114205	          0.00000000	          0.30249950	          0.00000000	          0.00001846	          0.00000000	          0.00000000	          1.70896115	          0.00000000	
          1.92000000	         -0.00878391	          0.02822697	          0.00039312	          0.00031299	          0.00000000	          0.00017538	         98.99542470	        818.18273411	        -14.53382084	         -0.10074185	          0.00000000	          0.30233379	          0.00000000	         -0.00005149	          0.00000000	          0.00000000	          1.75932082	          0.00000000	
          1.92500000	         -0.02316585	          0.24397319	         -0.01090531	          0.00055137	          0.00000000	          0.00029676	        103.81771316	        816.43216676	        -13.32142219	         -0.10025301	          0.00000000	          0.30207360	          0.00000000	         -0.00030377	          0.00000000	          0.00000000	          1.79283232	          0.00000000	
          1.93000000	          0.02083299	          0.37298252	         -0.03192200	         -0.00145360	          0.00000000	         -0.00084615	        108.70754896	        813.31236356	        -12.53010187	         -0.09982798	          0.00000000	          0.30185749	          0.00000000	         -0.00031379	          0.00000000	          0.00000000	          1.72743836	          0.00000000	
          1.93500000	          0.26754651	         -1.28045042	          0.01766063	         -0.00885322	          0.00000000	         -0.00493055	        113.38549441	        808.70538029	        -12.28794781	         -0.09948124	          0.00000000	          0.30179943	          0.00000000	          0.00198508	          0.00000000	          0.00000000	          1.58732581	          0.00000000	
